<svg width="45" height="44" viewBox="0 0 45 44" fill="none" xmlns="http://www.w3.org/2000/svg">
<circle cx="22.5" cy="22" r="22" fill="white"/>
<g clip-path="url(#clip0_13_1365)">
<path d="M17.1901 15.3125C17.8528 15.3125 18.4652 15.3628 19.0273 15.5138C19.5879 15.6144 20.0493 15.8242 20.459 16.0758C20.8701 16.3288 21.1734 16.6882 21.3804 17.1496C21.5817 17.6096 21.6909 18.1717 21.6909 18.7841C21.6909 19.4971 21.5386 20.1094 21.1792 20.5694C20.8701 21.0294 20.3656 21.4406 19.746 21.7439C20.6171 21.9969 21.2798 22.4569 21.6838 23.0692C22.0877 23.6816 22.3464 24.4449 22.3464 25.3161C22.3464 26.0291 22.1955 26.6414 21.9367 27.1532C21.6786 27.6683 21.2913 28.1076 20.8126 28.4282C20.3526 28.7373 19.7906 28.9889 19.1782 29.1412C18.5783 29.2997 17.9614 29.3846 17.3411 29.3942L10.5 29.4043V15.3125H17.1901ZM16.7804 21.0309C17.3411 21.0309 17.8011 20.8799 18.1561 20.6212C18.5098 20.3624 18.6664 19.9068 18.6664 19.3461C18.6664 19.0356 18.6161 18.7337 18.5155 18.5311C18.4066 18.3256 18.2486 18.1503 18.0555 18.0207C17.847 17.907 17.6241 17.8219 17.3928 17.7678C17.1398 17.7174 16.8811 17.7174 16.5778 17.7174H13.6194V21.0381C13.6194 21.0309 16.7804 21.0309 16.7804 21.0309ZM16.9314 27.0583C17.2404 27.0583 17.5437 27.008 17.8025 26.9577C18.0555 26.9074 18.3143 26.8053 18.5155 26.6472C18.7168 26.4891 18.8749 26.3381 19.0273 26.0866C19.1279 25.8336 19.2285 25.5245 19.2285 25.1651C19.2285 24.4521 19.0272 23.9404 18.6161 23.581C18.2064 23.2719 17.6444 23.121 16.9817 23.121H13.6194V27.0511H16.9328L16.9314 27.0583ZM26.7897 27.008C27.2009 27.4177 27.8118 27.6204 28.6269 27.6204C29.1875 27.6204 29.6993 27.468 30.1104 27.2093C30.5201 26.9002 30.7716 26.5969 30.8722 26.2892H33.3735C32.9624 27.5126 32.35 28.3837 31.5364 28.9458C30.7227 29.4561 29.7496 29.7594 28.5751 29.7594C27.8241 29.7627 27.0793 29.6237 26.3801 29.3497C25.7508 29.1157 25.1892 28.7295 24.7456 28.2256C24.2725 27.7556 23.9211 27.1773 23.7221 26.5408C23.4706 25.8781 23.3627 25.1651 23.3627 24.3443C23.3627 23.581 23.4634 22.8608 23.7221 22.1981C23.9809 21.5369 24.3345 20.9734 24.7959 20.4631C25.2559 20.0031 25.818 19.5919 26.4304 19.3389C27.1132 19.0671 27.8416 18.928 28.5766 18.9292C29.4477 18.9292 30.211 19.0802 30.8737 19.4396C31.5349 19.7989 32.0481 20.2043 32.4578 20.8167C32.8675 21.3773 33.1708 22.04 33.3793 22.7544C33.4799 23.4674 33.5302 24.1862 33.4799 25.0012H26.0768C26.0768 25.835 26.3786 26.5969 26.7897 27.008ZM30.0097 21.6432C29.6504 21.2839 29.0869 21.0812 28.4242 21.0812C27.9642 21.0812 27.6106 21.1818 27.3015 21.3342C26.9924 21.4851 26.7898 21.6936 26.5885 21.8948C26.4006 22.0921 26.2755 22.3408 26.2291 22.6093C26.1774 22.8608 26.1285 23.0693 26.1285 23.2705H30.7227C30.6221 22.5144 30.3648 22.0026 30.0097 21.6432ZM25.5147 16.2843H31.2331V17.6599H25.5147V16.2843Z" fill="black"/>
</g>
<defs>
<clipPath id="clip0_13_1365">
<rect width="23" height="23" fill="white" transform="translate(10.5 11)"/>
</clipPath>
</defs>
</svg>
