<svg width="45" height="44" viewBox="0 0 45 44" fill="none" xmlns="http://www.w3.org/2000/svg">
<circle cx="22.5" cy="22" r="22" fill="white"/>
<path d="M17.44 15C17.4397 15.5305 17.2288 16.0391 16.8535 16.4139C16.4782 16.7888 15.9694 16.9993 15.439 16.999C14.9086 16.9988 14.4 16.7878 14.0251 16.4125C13.6502 16.0373 13.4397 15.5285 13.44 14.998C13.4403 14.4676 13.6512 13.959 14.0265 13.5841C14.4018 13.2092 14.9106 12.9988 15.441 12.999C15.9714 12.9993 16.48 13.2103 16.8549 13.5855C17.2298 13.9608 17.4403 14.4696 17.44 15ZM17.5 18.48H13.5V31H17.5V18.48ZM23.82 18.48H19.84V31H23.78V24.43C23.78 20.77 28.55 20.43 28.55 24.43V31H32.5V23.07C32.5 16.9 25.44 17.13 23.78 20.16L23.82 18.48Z" fill="black"/>
</svg>
