<svg width="45" height="44" viewBox="0 0 45 44" fill="none" xmlns="http://www.w3.org/2000/svg">
<circle cx="22.5" cy="22" r="22" fill="white"/>
<path d="M29.0815 25.0062C27.9765 25.0062 26.9411 24.5226 26.0003 23.7355L26.2294 22.6242L26.2394 22.5831C26.4433 21.3999 27.0905 19.414 29.0815 19.414C30.5747 19.414 31.7893 20.6693 31.7893 22.2126C31.7843 23.7508 30.5698 25.0062 29.0815 25.0062ZM29.0815 16.5794C26.5379 16.5794 24.5669 18.2874 23.7656 21.0963C22.541 19.1979 21.6151 16.919 21.0726 15H18.335V22.3618C18.335 23.8126 17.1901 24.9957 15.7864 24.9957C14.3827 24.9957 13.238 23.8126 13.238 22.3618V15H10.5V22.3618C10.4901 25.3766 12.8644 27.851 15.7812 27.851C18.6982 27.851 21.0725 25.3766 21.0725 22.3618V21.1272C21.605 22.2744 22.2571 23.4318 23.0486 24.4608L21.371 32.6097H24.1735L25.388 26.6986C26.4532 27.4035 27.6777 27.846 29.0814 27.846C32.0828 27.846 34.5269 25.3045 34.5269 22.2023C34.5269 19.1053 32.083 16.5794 29.0815 16.5794Z" fill="#181347"/>
</svg>
